<svg xmlns="http://www.w3.org/2000/svg" viewBox="0 0 404 420" fill="none">
  <path fill="#E17726" stroke="#E17726" stroke-linecap="round" stroke-linejoin="round" stroke-width=".25" d="m382.44 14.836-144.96 107.96 26.992-64.136L382.44 14.836Z"/>
  <path fill="#E27625" stroke="#E27625" stroke-linecap="round" stroke-linejoin="round" stroke-width=".25" d="m21.196 14.836 143.96 108.96-25.492-65.136-118.468-43.824Zm305.312 274.708-41.996 64.136 89.988 24.784 25.992-88.42-73.984-.5Zm-324.808.5 25.492 88.42 89.988-24.784-41.996-64.136-73.484.5Z"/>
  <path fill="#E27625" stroke="#E27625" stroke-linecap="round" stroke-linejoin="round" stroke-width=".25" d="m112.684 141.644-23.992 36.14 85.488 3.748-2.5-92.096-58.996 52.208Zm178.316 0-59.496-53.208-1.996 93.096 85.488-3.748-23.996-36.14ZM116.68 353.68l51.496-24.784-44.496-34.64-7 59.424Zm118.968-24.784 51.496 24.784-7-59.424-44.496 34.64Z"/>
  <path fill="#D5BFB2" stroke="#D5BFB2" stroke-linecap="round" stroke-linejoin="round" stroke-width=".25" d="m287.144 353.68-51.496-24.784 4 33.14-.5 14.036 48-22.392Zm-170.464 0 48 22.392-.5-14.036 4-33.14-51.5 24.784Z"/>
  <path fill="#233447" stroke="#233447" stroke-linecap="round" stroke-linejoin="round" stroke-width=".25" d="m168.68 266.76-42.996-12.536 30.496-13.536 12.5 26.072Zm66.324 0 12.496-26.072 30.496 13.536-42.992 12.536Z"/>
  <path fill="#CC6228" stroke="#CC6228" stroke-linecap="round" stroke-linejoin="round" stroke-width=".25" d="m116.68 353.68 7.5-64.136-49.496.5 41.996 63.636Zm161.82-64.136 7.5 64.136 41.996-63.636-49.496-.5Zm33.496-63.136-85.488 3.748 7.996 44.072 12.496-26.072 30.496 13.536-34.496-35.284Zm-204.812 0 68.992.5-34.496 35.284 30.496-13.536 12.496 26.072 7.996-44.072-85.484-4.248Z"/>
  <path fill="#E27525" stroke="#E27525" stroke-linecap="round" stroke-linejoin="round" stroke-width=".25" d="m107.184 226.408 35.496 69.384-1.5-34.64-33.996-34.744Zm188.316 0-34.496 34.744-1 34.64 35.496-69.384ZM192.672 230.156l-7.996 44.072 9.996 51.708 2-68.244-4-27.536Zm18.496 0-3.5 27.036 2 68.744 9.996-51.708-8.496-44.072Z"/>
  <path fill="#F5841F" stroke="#F5841F" stroke-linecap="round" stroke-linejoin="round" stroke-width=".25" d="m211.168 274.228-9.996 51.708 7.496 5.248 44.496-34.64 1-34.64-42.996 12.324Zm-84.984-12.324 1 34.64 44.496 34.64 7.496-5.248-9.996-51.708-42.996-12.324Z"/>
  <path fill="#C0AC9D" stroke="#C0AC9D" stroke-linecap="round" stroke-linejoin="round" stroke-width=".25" d="m239.148 376.072.5-14.036-3.996-3.248h-67.992l-3.5 3.248.5 14.036-48-22.392 16.496 13.536 34.496 23.784h67.992l34.496-23.784 16.496-13.536-47.988 22.392Z"/>
  <path fill="#161616" stroke="#161616" stroke-linecap="round" stroke-linejoin="round" stroke-width=".25" d="m235.652 328.896-7.496-5.248h-52.996l-7.496 5.248-4 33.14 3.5-3.248h67.992l3.996 3.248-3.5-33.14Z"/>
  <path fill="#763E1A" stroke="#763E1A" stroke-linecap="round" stroke-linejoin="round" stroke-width=".25" d="m386.436 138.896-26.492 56.888 14.496 29.784-19.996-16.248 14.496 24.784-18.496 16.248 14.496 21.036-23.496 11.036 13.496-111.528Zm-369.436 0 31.492 31.14 13.496 111.528-23.492-11.036 14.496-21.036-18.496-16.248 14.496-24.784-19.996 16.248 14.496-29.784-26.492-56.888Z"/>
  <path fill="#F5841F" stroke="#F5841F" stroke-linecap="round" stroke-linejoin="round" stroke-width=".25" d="m365.444 225.908-14.496-24.784 19.996 16.248-5.5 8.536Zm-327.44-8.536 19.996-16.248-14.496 24.784-5.5-8.536Zm49.496 18.536 4 69.384-35.496-69.384 31.496 0Zm166.82 0 31.496 0-35.496 69.384 4-69.384Zm-84.484-66.636 2.5 42.572-8.996-46.32 6.496 3.748Z"/>
</svg>