<svg xmlns="http://www.w3.org/2000/svg" viewBox="0 0 128 128" fill="none">
  <rect width="128" height="128" fill="url(#a)" rx="64"/>
  <path fill="#fff" d="M110.584 64.9142H99.142c0-19.333-15.611-34.9999-34.892-34.9999-19.282 0-34.892 15.6669-34.892 34.9999-1.714 17.597 11.678 32.9359 29.177 34.6419 4.432.425 8.91.0461 13.205-1.1151v-16.564c-2.412.823-4.935 1.228-7.473 1.199-10.588 0-19.178-8.617-19.178-19.238 0-10.6211 8.59-19.238 19.178-19.238 10.589 0 19.178 8.6169 19.178 19.238v53.8139c7.473-2.465 14.354-6.876 19.937-12.848 5.584-5.9731 9.443-13.1921 11.202-20.9921Z"/>
  <defs>
    <linearGradient id="a" x1="64" x2="64" y1="0" y2="128" gradientUnits="userSpaceOnUse">
      <stop stop-color="#534BB1"/>
      <stop offset="1" stop-color="#551BF9"/>
    </linearGradient>
  </defs>
</svg>