<svg xmlns="http://www.w3.org/2000/svg" viewBox="0 0 397 397" fill="none">
  <circle cx="198.5" cy="198.5" r="198.5" fill="url(#a)"/>
  <path fill="#FFF" d="M324.722 138.793c-2.692-6.073-8.557-10.497-15.404-10.497H163.173l109.52-44.24c7.691-3.106 11.326-11.884 8.22-19.576-3.107-7.691-11.885-11.326-19.577-8.22L102.03 123.396c-4.584 1.553-8.22 5.19-9.773 9.773-.866 3.106-.866 6.212.866 9.318 2.692 6.073 8.557 10.497 15.404 10.497h146.145l-109.52 44.24c-7.691 3.106-11.326 11.884-8.22 19.576 2.24 5.635 7.691 9.318 13.759 9.318 1.986 0 3.972-.433 5.818-1.098l159.306-67.136c4.584-1.553 8.22-5.19 9.773-9.773.866-3.106.866-6.212-.866-9.318ZM324.722 263.793c-2.692-6.073-8.557-10.497-15.404-10.497H163.173l109.52-44.24c7.691-3.106 11.326-11.884 8.22-19.576-3.107-7.691-11.885-11.326-19.577-8.22L102.03 248.396c-4.584 1.553-8.22 5.19-9.773 9.773-.866 3.106-.866 6.212.866 9.318 2.692 6.073 8.557 10.497 15.404 10.497h146.145l-109.52 44.24c-7.691 3.106-11.326 11.884-8.22 19.576 2.24 5.635 7.691 9.318 13.759 9.318 1.986 0 3.972-.433 5.818-1.098l159.306-67.136c4.584-1.553 8.22-5.19 9.773-9.773.866-3.106.866-6.212-.866-9.318Z"/>
  <defs>
    <linearGradient id="a" x1="198.5" x2="198.5" y1="0" y2="397" gradientUnits="userSpaceOnUse">
      <stop stop-color="#FFA95A"/>
      <stop offset="1" stop-color="#FF5B42"/>
    </linearGradient>
  </defs>
</svg>