<svg xmlns="http://www.w3.org/2000/svg" viewBox="0 0 120 120" fill="none">
  <rect width="120" height="120" fill="#0098EA" rx="60"/>
  <path fill="#fff" d="M95.001 42.0619C95.001 39.3119 92.751 37.0619 90.001 37.0619H30.001C27.251 37.0619 25.001 39.3119 25.001 42.0619V72.0619C25.001 74.8119 27.251 77.0619 30.001 77.0619H90.001C92.751 77.0619 95.001 74.8119 95.001 72.0619V42.0619Z"/>
  <path fill="#0098EA" d="M60.001 41.0619C46.751 41.0619 36.001 51.8119 36.001 65.0619C36.001 78.3119 46.751 89.0619 60.001 89.0619C73.251 89.0619 84.001 78.3119 84.001 65.0619C84.001 51.8119 73.251 41.0619 60.001 41.0619ZM60.001 83.0619C50.084 83.0619 42.001 74.9789 42.001 65.0619C42.001 55.1449 50.084 47.0619 60.001 47.0619C69.918 47.0619 78.001 55.1449 78.001 65.0619C78.001 74.9789 69.918 83.0619 60.001 83.0619Z"/>
  <path fill="#45AEF5" d="M60.001 47.0619C50.084 47.0619 42.001 55.1449 42.001 65.0619C42.001 74.9789 50.084 83.0619 60.001 83.0619C69.918 83.0619 78.001 74.9789 78.001 65.0619C78.001 55.1449 69.918 47.0619 60.001 47.0619ZM60.001 77.0619C53.418 77.0619 48.001 71.6449 48.001 65.0619C48.001 58.4789 53.418 53.0619 60.001 53.0619C66.584 53.0619 72.001 58.4789 72.001 65.0619C72.001 71.6449 66.584 77.0619 60.001 77.0619Z"/>
  <path fill="#87CFFF" d="M60.001 53.0619C53.418 53.0619 48.001 58.4789 48.001 65.0619C48.001 71.6449 53.418 77.0619 60.001 77.0619C66.584 77.0619 72.001 71.6449 72.001 65.0619C72.001 58.4789 66.584 53.0619 60.001 53.0619ZM60.001 71.0619C56.751 71.0619 54.001 68.3119 54.001 65.0619C54.001 61.8119 56.751 59.0619 60.001 59.0619C63.251 59.0619 66.001 61.8119 66.001 65.0619C66.001 68.3119 63.251 71.0619 60.001 71.0619Z"/>
</svg>