<svg xmlns="http://www.w3.org/2000/svg" viewBox="0 0 120 120" fill="none">
  <rect width="120" height="120" fill="url(#a)" rx="60"/>
  <path fill="#fff" d="M95 73.667c0 2.75-2.25 5-5 5H30c-2.75 0-5-2.25-5-5v-30c0-2.75 2.25-5 5-5h60c2.75 0 5 2.25 5 5v30Z"/>
  <path fill="#0098EA" d="M60 41.333c-13.25 0-24 10.75-24 24s10.75 24 24 24 24-10.75 24-24-10.75-24-24-24Zm0 42c-9.917 0-18-8.083-18-18s8.083-18 18-18 18 8.083 18 18-8.083 18-18 18Z"/>
  <path fill="#45AEF5" d="M60 47.333c-9.917 0-18 8.084-18 18 0 9.917 8.083 18 18 18s18-8.083 18-18c0-9.916-8.083-18-18-18Zm0 30c-6.583 0-12-5.416-12-12 0-6.583 5.417-12 12-12s12 5.417 12 12c0 6.584-5.417 12-12 12Z"/>
  <path fill="#87CFFF" d="M60 53.333c-6.583 0-12 5.417-12 12 0 6.584 5.417 12 12 12s12-5.416 12-12c0-6.583-5.417-12-12-12Zm0 18c-3.25 0-6-2.75-6-6s2.75-6 6-6 6 2.75 6 6-2.75 6-6 6Z"/>
  <defs>
    <linearGradient id="a" x1="60" x2="60" y1="0" y2="120" gradientUnits="userSpaceOnUse">
      <stop stop-color="#45AEF5"/>
      <stop offset="1" stop-color="#0098EA"/>
    </linearGradient>
  </defs>
</svg>