<svg xmlns="http://www.w3.org/2000/svg" viewBox="0 0 512 512" fill="none">
  <path fill="#3B99FC" d="M102.36 161.08c84.816-82.944 222.464-82.944 307.28 0l10.24 10.016c4.256 4.16 4.256 10.912 0 15.072l-35.008 34.272c-2.128 2.08-5.568 2.08-7.696 0l-14.112-13.808c-59.2-57.92-155.168-57.92-214.368 0l-15.104 14.784c-2.128 2.08-5.568 2.08-7.696 0l-35.008-34.272c-4.256-4.16-4.256-10.912 0-15.072l11.472-11.216v.224Zm379.904 71.744 31.168 30.512c4.256 4.16 4.256 10.912 0 15.072L405.6 383.264c-4.256 4.16-11.168 4.16-15.424 0L280.64 275.984c-1.072-1.04-2.784-1.04-3.84 0L167.264 383.264c-4.256 4.16-11.168 4.16-15.424 0L44.008 278.408c-4.256-4.16-4.256-10.912 0-15.072l31.168-30.512c4.256-4.16 11.168-4.16 15.424 0l109.536 107.28c1.072 1.04 2.784 1.04 3.84 0l109.52-107.28c4.256-4.16 11.168-4.16 15.424 0l109.536 107.28c1.072 1.04 2.784 1.04 3.84 0l109.536-107.28c4.256-4.16 11.168-4.16 15.424 0Z"/>
</svg>